<?xml version="1.0" encoding="UTF-8"?>
<!DOCTYPE svg PUBLIC "-//W3C//DTD SVG 1.1//EN" "http://www.w3.org/Graphics/SVG/1.1/DTD/svg11.dtd">
<svg xmlns="http://www.w3.org/2000/svg" version="1.1" width="100px" height="100px" style="shape-rendering:geometricPrecision; text-rendering:geometricPrecision; image-rendering:optimizeQuality; fill-rule:evenodd; clip-rule:evenodd" xmlns:xlink="http://www.w3.org/1999/xlink">
<g><path style="opacity:0.868" fill="#fefffe" d="M 48.5,2.5 C 63.1423,2.90513 75.309,8.57179 85,19.5C 85.4859,24.9919 82.9859,26.8253 77.5,25C 65.3647,12.1919 51.0314,8.85854 34.5,15C 17.645,24.2094 10.4784,38.3761 13,57.5C 21.0673,80.7871 37.234,89.9538 61.5,85C 67.6581,82.5045 72.9914,78.8379 77.5,74C 83.0777,71.5744 85.5777,73.4077 85,79.5C 73.0172,92.6064 58.1838,97.7731 40.5,95C 12.7429,86.8862 0.576219,68.3862 4,39.5C 10.5929,17.0605 25.4262,4.72715 48.5,2.5 Z"/></g>
<g><path style="opacity:0.879" fill="#fefffe" d="M 76.5,30.5 C 77.9217,30.7086 79.255,31.2086 80.5,32C 85.3333,36.8333 90.1667,41.6667 95,46.5C 95.6667,48.5 95.6667,50.5 95,52.5C 90.1667,57.3333 85.3333,62.1667 80.5,67C 76.5698,68.4211 73.9032,67.2545 72.5,63.5C 74.6028,59.894 77.2694,56.7273 80.5,54C 67.5914,53.8234 54.758,53.3234 42,52.5C 40.0639,49.1844 40.8972,46.6844 44.5,45C 56.1667,44.6667 67.8333,44.3333 79.5,44C 76.6,41.6032 74.2667,38.7698 72.5,35.5C 73.1598,33.1853 74.4931,31.5186 76.5,30.5 Z"/></g>
</svg>
